<?xml version="1.0" encoding="utf-8"?>
<!-- Generator: Adobe Illustrator 24.3.0, SVG Export Plug-In . SVG Version: 6.00 Build 0)  -->
<svg version="1.1" id="Layer_1" xmlns="http://www.w3.org/2000/svg" xmlns:xlink="http://www.w3.org/1999/xlink" x="0px" y="0px"
	 viewBox="0 0 500 500" style="enable-background:new 0 0 500 500;" xml:space="preserve">
<style type="text/css">
	.st0{
		fill:none;
		stroke:#ffffff;
		stroke-width: 25;
		stroke-miterlimit:25;
	}
	.st1 {
		fill: white;
		transform: scale(0.8);
		transform-origin: center;
	}
</style>
<path class="st0" d="M232.8,62.1L29.3,414.6c-7.6,13.2,1.9,29.8,17.2,29.8h407.1c15.3,0,24.8-16.5,17.2-29.8L267.2,62.1
	C259.5,48.9,240.5,48.9,232.8,62.1z"/>
<g>
	<path class="st1" d="M215,403.8c-3.7-0.7-6.6-3.7-8.7-8.7c-2.1-5.1-3.1-9.2-3.1-12.3c0-6,4-11.5,11.9-16.5c7.9-5,15.2-7.5,21.9-7.5
		c23.3,0,34.9,12.5,34.9,37.6c0,8.2-2.9,14.7-8.6,19.5c-5.7,4.8-12.6,7.2-20.7,7.2c-5.2,0-9.7-3-13.5-9.1
		c-3.8-6.1-5.7-12.5-5.7-19.1c0-4,1-7.3,2.9-9.8c1.9-2.5,4.5-3.8,7.6-3.8c9.4,0,14.1,6.3,14.1,18.8c-1.5-0.7-3.4-2.1-5.7-4
		c-2.3-1.9-4.5-2.9-6.6-2.9c-1.5,0-2.9,0.7-4.1,2.1c-1.3,1.4-1.9,3-1.9,4.7c0,5,4.3,7.5,13,7.5c10.9,0,16.3-5.1,16.3-15.4
		c0-5.9-3-11.5-9.1-16.6c-6-5.1-12.5-7.7-19.4-7.7c-4.8,0-9,2.7-12.8,8c-3.7,5.3-5.6,11.1-5.6,17.4C212.1,397.3,213,400.8,215,403.8
		z M272.3,117.3c-6.6,28.1-13.1,63.9-19.6,107.7c-6.5,43.7-9.7,81.6-9.7,113.7c-5.5-1.8-10-3-13.4-3.6c1.6-54.5,2.5-96.8,2.5-126.9
		c0-24-1.7-52-5.1-83.9C250,121.3,265.1,118.9,272.3,117.3z"/>
</g>
</svg>
