<svg height="480pt" viewBox="-20 0 480 480" width="480pt" xmlns="http://www.w3.org/2000/svg"><path d="m256.03125 384c-.011719-23.34375 9.253906-45.734375 25.761719-62.238281 16.503906-16.507813 38.894531-25.773438 62.238281-25.761719v-288h-240v96h-96v368h336c-23.34375.011719-45.734375-9.253906-62.238281-25.761719-16.507813-16.503906-25.773438-38.894531-25.761719-62.238281zm-32-64c-13.253906 0-24-10.746094-24-24s10.746094-24 24-24 24 10.746094 24 24-10.746094 24-24 24zm24-136v8l-112 32v104c0 13.253906-10.746094 24-24 24s-24-10.746094-24-24 10.746094-24 24-24 24 10.746094 24 24v-136l112-32zm0 0" fill="#ffcd00"/><g fill="#ab2300"><path d="m136.03125 328c0 13.253906-10.746094 24-24 24s-24-10.746094-24-24 10.746094-24 24-24 24 10.746094 24 24zm0 0"/><path d="m248.03125 296c0 13.253906-10.746094 24-24 24s-24-10.746094-24-24 10.746094-24 24-24 24 10.746094 24 24zm0 0"/><path d="m136.03125 224 112-32v-32l-112 32zm0 0"/></g><path d="m104.03125 8-96 96h96zm0 0" fill="#cca400"/><path d="m344.03125 296c-48.601562 0-88 39.398438-88 88s39.398438 88 88 88 88-39.398438 88-88c.011719-23.34375-9.253906-45.734375-25.761719-62.238281-16.503906-16.507813-38.894531-25.773438-62.238281-25.761719zm0 40-33.941406 33.945312 33.941406-33.945312 33.945312 33.945312zm0 0" fill="#83d8f4"/><path d="m256.03125 160c0-2.507812-1.175781-4.875-3.179688-6.386719-2-1.511719-4.597656-1.996093-7.011718-1.308593l-112 32c-3.4375.980468-5.808594 4.121093-5.808594 7.695312v108.449219c-4.84375-2.878907-10.363281-4.417969-16-4.449219-17.671875 0-32 14.328125-32 32s14.328125 32 32 32c17.675781 0 32-14.328125 32-32v-97.960938l96-27.429687v65.839844c-4.84375-2.878907-10.363281-4.417969-16-4.449219-17.671875 0-32 14.328125-32 32s14.328125 32 32 32c17.675781 0 32-14.328125 32-32zm-144 184c-8.835938 0-16-7.164062-16-16s7.164062-16 16-16 16 7.164062 16 16-7.164062 16-16 16zm32-130.609375v-15.359375l96-27.421875v15.359375zm80 98.609375c-8.835938 0-16-7.164062-16-16s7.164062-16 16-16 16 7.164062 16 16-7.164062 16-16 16zm0 0" fill="#231f20"/><path d="m352.03125 288.40625v-280.40625c0-4.417969-3.582031-8-8-8h-240c-.167969 0-.320312.0898438-.496094.0976562-.707031.0429688-1.402344.1835938-2.070312.4140628-.257813.089843-.496094.152343-.746094.265625-.871094.386718-1.664062.929687-2.34375 1.597656l-96 96c-.667969.679688-1.210938 1.472656-1.597656 2.34375-.113282.242188-.175782.496094-.265625.746094-.230469.667968-.371094 1.363281-.4140628 2.070312 0 .175782-.0976562.328125-.0976562.496094v367.96875c0 4.417969 3.582031 8 8 8h336.03125c51.148438-.429688 92.976562-40.886719 95.113281-91.992188 2.132813-51.105468-36.179687-94.910156-87.113281-99.601562zm-256-261.09375v68.6875h-68.6875zm194.984375 436.6875h-274.984375v-352h88c4.417969 0 8-3.582031 8-8v-88h224v272.328125c-.320312 0-.632812.097656-.960938.128906-1.335937.117188-2.644531.34375-4 .519531-1.789062.238282-3.574218.480469-5.335937.800782-1.34375.261718-2.65625.597656-4 .917968-1.679687.402344-3.359375.800782-5.007813 1.289063-1.328124.390625-2.621093.855469-3.925781 1.304687-1.601562.550782-3.199219 1.101563-4.730469 1.734376-1.285156.519531-2.542968 1.097656-3.804687 1.671874-1.496094.679688-2.984375 1.382813-4.441406 2.136719-1.230469.648438-2.398438 1.335938-3.648438 2.03125-1.40625.800781-2.800781 1.648438-4.160156 2.527344-1.175781.761719-2.320313 1.546875-3.457031 2.351563-1.3125.9375-2.597656 1.898437-3.871094 2.898437-1.09375.863281-2.167969 1.742187-3.199219 2.65625-1.222656 1.046875-2.398437 2.128906-3.558593 3.199219-1.019532.96875-2.019532 1.9375-2.984376 2.945312-1.113281 1.160156-2.183593 2.351563-3.242187 3.566406-.910156 1.046876-1.824219 2.097657-2.695313 3.199219-1.007812 1.257813-1.960937 2.570313-2.902343 3.882813-.800781 1.125-1.601563 2.246094-2.402344 3.40625-.894531 1.367187-1.71875 2.777344-2.550781 4.191406-.695313 1.191406-1.410156 2.402344-2.046875 3.59375-.800781 1.472656-1.472657 2.984375-2.175781 4.503906-.578126 1.230469-1.175782 2.453125-1.699219 3.71875-.644531 1.601563-1.207031 3.199219-1.773438 4.855469-.441406 1.257813-.921875 2.488281-1.3125 3.769531-.527343 1.742188-.9375 3.535156-1.367187 5.320313-.296875 1.222656-.648438 2.398437-.898438 3.65625-.398437 2.023437-.664062 4.085937-.933594 6.152343-.144531 1.046876-.351562 2.078126-.457031 3.140626-.71875 6.921874-.644531 13.898437.230469 20.800781.136719 1.144531.34375 2.273437.519531 3.410156.394531 2.566406.875 5.101563 1.472657 7.597656.289062 1.226563.59375 2.402344.9375 3.632813.703124 2.503906 1.519531 4.960937 2.398437 7.375.367187.992187.6875 1.992187 1.089844 2.96875 1.339843 3.304687 2.863281 6.535156 4.558593 9.671875.199219.359375.433594.6875.632813 1.039062 1.550781 2.753907 3.230469 5.421875 5.039063 8 .65625.9375 1.359374 1.832031 2.046874 2.746094 1.488282 1.960937 3.027344 3.871094 4.65625 5.710937.800782.914063 1.601563 1.808594 2.402344 2.6875 1.792969 1.882813 3.664063 3.664063 5.597656 5.402344.722657.636719 1.402344 1.320313 2.144532 1.941406 2.703125 2.285157 5.527344 4.421876 8.457031 6.402344.175781.078125.257813.152344.34375.214844zm53.015625 0c-44.183594 0-80-35.816406-80-80s35.816406-80 80-80 80 35.816406 80 80c-.046875 44.164062-35.835938 79.953125-80 80zm0 0" fill="#231f20"/><path d="m349.695312 330.351562c-.746093-.746093-1.632812-1.335937-2.605468-1.734374-1.957032-.808594-4.15625-.808594-6.113282 0-.976562.398437-1.863281.988281-2.609374 1.734374l-33.925782 33.929688c-3.03125 3.136719-2.988281 8.128906.097656 11.214844 3.085938 3.085937 8.074219 3.128906 11.214844.097656l20.277344-20.28125v76.6875c0 4.417969 3.582031 8 8 8s8-3.582031 8-8v-76.6875l20.28125 20.28125c3.136719 3.03125 8.128906 2.988281 11.214844-.097656 3.085937-3.085938 3.128906-8.078125.097656-11.214844zm0 0" fill="#231f20"/></svg>