<?xml version="1.0" encoding="utf-8"?>
<!-- Generator: Adobe Illustrator 24.3.0, SVG Export Plug-In . SVG Version: 6.00 Build 0)  -->
<svg version="1.1" id="Layer_1" xmlns="http://www.w3.org/2000/svg" xmlns:xlink="http://www.w3.org/1999/xlink" x="0px" y="0px"
	 viewBox="0 0 500 500" style="enable-background:new 0 0 500 500;" xml:space="preserve">
<style type="text/css">
	.st0{fill:none;
	stroke:#ffffff;stroke-width: 25;stroke-miterlimit:25;}
</style>
<path class="st0" d="M458.3,221.7h-27.1v204.4c0,33.3-27,60.3-60.3,60.3h-64.7V380.1c0-15.9-6.5-30.3-16.9-40.7
	c-10.4-10.4-24.8-16.9-40.7-16.9c-31.8,0-57.6,25.8-57.6,57.6v106.3h-64.7c-33.3,0-60.3-27-60.3-60.3V221.7H41.8c-4,0-6-4.8-3.2-7.7
	L231.2,21.4c10.4-10.4,27.2-10.4,37.6,0l60.1,60.1V34.6c0-11.6,9.4-21.1,21.1-21.1h20.9c11.6,0,21.1,9.4,21.1,21.1v109.9l69.5,69.5
	C464.3,216.8,462.3,221.7,458.3,221.7z"/>
</svg>
