<?xml version="1.0" encoding="iso-8859-1"?>
<!-- Generator: Adobe Illustrator 19.0.0, SVG Export Plug-In . SVG Version: 6.00 Build 0)  -->
<svg version="1.1" id="Layer_1" xmlns="http://www.w3.org/2000/svg" xmlns:xlink="http://www.w3.org/1999/xlink" x="0px" y="0px"
	 viewBox="0 0 512.035 512.035" style="enable-background:new 0 0 512.035 512.035;" xml:space="preserve">
<g transform="translate(1 1)">
	<polygon style="fill:#FFE100;" points="129.56,127.017 41.667,255.017 129.56,383.017 229.4,383.017 135.533,255.017 
		229.4,127.017 	"/>
	<polygon style="fill:#FFFFFF;" points="129.56,127.017 127,127.017 7.533,255.017 127,383.017 129.56,383.017 41.667,255.017 	"/>
	<g>
		<polygon style="fill:#FFA800;" points="229.4,127.017 135.533,255.017 263.533,127.017 		"/>
		<polygon style="fill:#FFA800;" points="229.4,383.017 263.533,383.017 135.533,255.017 		"/>
	</g>
	<polygon style="fill:#63D3FD;" points="368.493,127.017 280.6,255.017 368.493,383.017 468.333,383.017 374.467,255.017 
		468.333,127.017 	"/>
	<polygon style="fill:#FFFFFF;" points="368.493,127.017 365.933,127.017 246.467,255.017 365.933,383.017 368.493,383.017 
		280.6,255.017 	"/>
	<g>
		<polygon style="fill:#3DB9F9;" points="468.333,127.017 374.467,255.017 502.467,127.017 		"/>
		<polygon style="fill:#3DB9F9;" points="468.333,383.017 502.467,383.017 374.467,255.017 		"/>
	</g>
	<path d="M263.533,391.551H127c-2.56,0-4.267-0.853-5.973-2.56l-119.467-128c-3.413-3.413-3.413-8.533,0-11.947l34.133-36.693
		c3.413-3.413,8.533-3.413,11.947,0s3.413,8.533,0,11.947l-28.16,30.72l111.787,119.467h112.64L129.56,260.991
		c-1.707-1.707-2.56-3.413-2.56-5.973s0.853-4.267,2.56-5.973l113.493-113.493h-112.64l-40.107,42.667
		c-3.413,3.413-8.533,3.413-11.947,0s-3.413-8.533,0-11.947l42.667-46.08c1.707-0.853,3.413-1.707,5.973-1.707h136.533
		c3.413,0,6.827,1.707,7.68,5.12c1.707,3.413,0.853,6.827-1.707,9.387L147.48,255.017l122.027,122.027
		c2.56,2.56,3.413,5.973,1.707,9.387C270.36,389.844,266.947,391.551,263.533,391.551z"/>
	<path d="M68.973,195.284c0-5.12-3.413-8.533-8.533-8.533s-8.533,3.413-8.533,8.533c0,5.12,3.413,8.533,8.533,8.533
		S68.973,200.404,68.973,195.284"/>
	<path d="M502.467,391.551H365.933c-2.56,0-4.267-0.853-5.973-2.56l-119.467-128c-3.413-3.413-3.413-8.533,0-11.947l119.467-128
		c1.707-1.707,3.413-2.56,5.973-2.56h136.533c3.413,0,6.827,1.707,7.68,5.12c1.707,3.413,0.853,6.827-1.707,9.387L386.413,255.017
		L508.44,377.044c2.56,2.56,3.413,5.973,1.707,9.387C509.293,389.844,505.88,391.551,502.467,391.551z M369.347,374.484h112.64
		L368.493,260.991c-3.413-3.413-3.413-8.533,0-11.947l113.493-113.493h-112.64L258.413,255.017L369.347,374.484z"/>
</g>
<g>
</g>
<g>
</g>
<g>
</g>
<g>
</g>
<g>
</g>
<g>
</g>
<g>
</g>
<g>
</g>
<g>
</g>
<g>
</g>
<g>
</g>
<g>
</g>
<g>
</g>
<g>
</g>
<g>
</g>
</svg>
